<svg width="1200" height="260" viewBox="0 0 1200 260" fill="none" xmlns="http://www.w3.org/2000/svg">
<g clip-path="url(#clip0_70_5)">
<path d="M50.5435 170.755L101.217 142.415L102.065 139.945L101.217 138.58H98.7391L90.2609 138.06L61.3043 137.28L36.1957 136.24L11.8696 134.94L5.73913 133.64L0 126.1L0.586956 122.33L5.73913 118.885L13.1087 119.535L29.413 120.64L53.8696 122.33L71.6087 123.37L97.8913 126.1H102.065L102.652 124.41L101.217 123.37L100.109 122.33L74.8043 105.235L47.413 87.1651L33.0652 76.7651L25.3043 71.5001L21.3913 66.5601L19.6957 55.7701L26.7391 48.0351L36.1957 48.6851L38.6087 49.3351L48.1956 56.6801L68.6739 72.4751L95.413 92.1051L99.3261 95.3551L100.891 94.2501L101.087 93.4701L99.3261 90.5451L84.7826 64.3501L69.2609 37.7001L62.3478 26.6501L60.5217 20.0201C59.8696 17.2901 59.413 15.0151 59.413 12.2201L67.4348 1.36506L71.8696 -0.0649414L82.5652 1.36506L87.0652 5.26506L93.7174 20.4101L104.478 44.2651L121.174 76.7001L126.065 86.3201L128.674 95.2251L129.652 97.9551H131.348V96.3951L132.717 78.1301L135.261 55.7051L137.739 26.8451L138.587 18.7201L142.63 8.97006L150.652 3.70506L156.913 6.69506L162.065 14.0401L161.348 18.7851L158.283 38.6101L152.283 69.6801L148.37 90.4801H150.652L153.261 87.8801L163.826 73.9051L181.565 51.8051L189.391 43.0301L198.522 33.3451L204.391 28.7301H215.478L223.63 40.8201L219.978 53.3001L208.565 67.7301L199.109 79.9501L185.543 98.1501L177.065 112.71L177.848 113.88L179.87 113.685L210.522 107.185L227.087 104.195L246.848 100.815L255.783 104.975L256.761 109.2L253.239 117.845L232.109 123.045L207.326 127.985L170.413 136.695L169.957 137.02L170.478 137.67L187.109 139.23L194.217 139.62H211.63L244.043 142.025L252.522 147.615L257.609 154.44L256.761 159.64L243.717 166.27L226.109 162.11L185.022 152.36L170.935 148.85H168.978V150.02L180.717 161.46L202.239 180.83L229.174 205.79L230.543 211.965L227.087 216.84L223.435 216.32L199.761 198.575L190.63 190.58L169.957 173.225H168.587V175.045L173.348 182L198.522 219.7L199.826 231.27L198 235.04L191.478 237.315L184.304 236.015L169.565 215.41L154.37 192.205L142.109 171.405L140.609 172.25L133.37 249.925L129.978 253.89L122.152 256.88L115.63 251.94L112.174 243.945L115.63 228.15L119.804 207.545L123.196 191.165L126.261 170.82L128.087 164.06L127.957 163.605L126.457 163.8L111.065 184.86L87.6522 216.385L69.1304 236.145L64.6956 237.9L57 233.935L57.7174 226.85L62.0217 220.545L87.6522 188.045L103.109 167.895L113.087 156.26L113.022 154.57H112.435L44.3478 198.64L32.2174 200.2L27 195.325L27.6522 187.33L30.1304 184.73L50.6087 170.69L50.5435 170.755Z" fill="#D97757"/>
<path d="M420.522 218.01C387.783 218.01 365.413 199.81 354.848 171.795C349.331 157.197 346.61 141.698 346.826 126.1C346.826 79.105 367.957 46.475 414.653 46.475C446.022 46.475 465.392 60.125 476.413 92.69H489.848L488.022 47.775C469.239 35.685 445.761 29.575 417.196 29.575C376.957 29.575 342.718 47.515 323.674 79.885C313.838 96.9779 308.835 116.409 309.196 136.11C309.196 172.055 326.218 203.905 358.174 221.585C375.664 230.9 395.286 235.514 415.109 234.975C446.283 234.975 471 229.06 492.913 218.725L498.587 169.195H484.892C476.674 191.815 466.892 205.4 450.653 212.615C442.696 216.19 432.653 218.01 420.522 218.01ZM561.718 46.475L563.022 24.375H553.761L512.544 36.725V43.42L530.805 51.87V206.44C530.805 216.97 525.392 219.31 511.239 221.065V232.375H581.348V221.065C567.131 219.31 561.783 216.97 561.783 206.44V46.54L561.718 46.475ZM840.522 234.975H845.935L893.348 226.005V214.435L886.696 213.915C875.609 212.875 872.739 210.6 872.739 201.565V119.145L874.044 92.69H866.544L821.739 99.125V110.435L826.109 111.215C838.239 112.97 841.826 116.35 841.826 124.8V198.25C830.218 207.22 819.131 212.875 805.957 212.875C791.348 212.875 782.283 205.465 782.283 188.175V119.21L783.587 92.755H775.892L731.022 99.19V110.5L735.653 111.28C747.783 113.035 751.37 116.415 751.37 124.865V192.66C751.37 221.39 767.674 235.04 793.631 235.04C813.457 235.04 829.696 224.51 841.892 209.885L840.587 235.04L840.522 234.975ZM710.218 143.52C710.218 106.795 690.653 92.69 655.305 92.69C624.131 92.69 601.5 105.56 601.5 126.88C601.5 133.25 603.783 138.125 608.413 141.505L632.153 138.385C631.109 131.235 630.587 126.88 630.587 125.06C630.587 112.97 637.044 106.86 650.153 106.86C669.522 106.86 679.305 120.445 679.305 142.285V149.435L630.392 164.06C614.087 168.48 604.826 172.315 598.631 181.285C595.347 186.773 593.759 193.103 594.066 199.485C594.066 220.285 608.413 234.975 632.935 234.975C650.674 234.975 666.392 226.98 680.087 211.835C684.979 226.98 692.479 234.975 705.848 234.975C716.674 234.975 726.457 230.62 735.196 222.105L732.587 213.135C728.805 214.175 725.152 214.695 721.305 214.695C713.805 214.695 710.218 208.78 710.218 197.21V143.52ZM647.609 214.175C634.239 214.175 625.957 206.44 625.957 192.855C625.957 183.625 630.326 178.23 639.653 175.11L679.305 162.565V200.525C666.653 210.08 659.218 214.175 647.609 214.175ZM1060.44 226.005V214.435L1053.72 213.915C1042.63 212.875 1039.83 210.6 1039.83 201.565V46.475L1041.13 24.375H1031.8L990.587 36.725V43.42L1008.85 51.87V102.7C998.569 95.6737 986.28 92.1612 973.826 92.69C932.87 92.69 900.913 123.76 900.913 170.235C900.913 208.52 923.87 234.975 961.696 234.975C981.261 234.975 998.283 225.485 1008.85 210.795L1007.54 234.975H1013.02L1060.44 226.005ZM974.609 108.095C994.174 108.095 1008.85 119.405 1008.85 140.205V198.705C1004.39 203.134 999.087 206.624 993.25 208.969C987.413 211.314 981.162 212.465 974.87 212.355C946.826 212.355 932.609 190.255 932.609 160.745C932.609 127.595 948.848 108.095 974.609 108.095ZM1160.67 137.345C1157.02 120.185 1146.46 110.435 1131.78 110.435C1109.87 110.435 1094.67 126.88 1094.67 150.475C1094.67 185.38 1113.2 208 1143.13 208C1152.94 207.901 1162.56 205.238 1171.02 200.277C1179.47 195.315 1186.48 188.228 1191.33 179.725L1200.07 182.065C1196.15 212.355 1168.63 234.975 1134.85 234.975C1095.2 234.975 1067.87 205.725 1067.87 164.125C1067.87 122.2 1097.54 92.69 1137.2 92.69C1166.8 92.69 1187.67 110.435 1194.39 141.245L1091.09 172.835V158.925L1160.67 137.41V137.345Z" fill="white"/>
</g>
<defs>
<clipPath id="clip0_70_5">
<rect width="1200" height="260" fill="white"/>
</clipPath>
</defs>
</svg>
