<svg width="1200" height="503" viewBox="0 0 1200 503" fill="none" xmlns="http://www.w3.org/2000/svg">
<path d="M127.662 121C57.4479 121 0 178.448 0 248.662C0 318.876 57.4479 376.324 127.662 376.324C197.876 376.324 255.324 319.23 255.324 248.662C255.324 178.092 198.23 121 127.662 121ZM127.662 330.578C84.0445 330.578 48.9364 294.762 48.9364 248.662C48.9364 202.562 84.0445 166.745 127.662 166.745C171.279 166.745 206.386 202.562 206.386 248.662C206.386 294.762 171.279 330.578 127.662 330.578Z" fill="white"/>
<path d="M384.401 191.923C361.351 191.923 339.01 201.143 327.307 216.746V195.469H281.207V443.701H327.307V353.983C339.01 368.522 360.641 376.324 384.401 376.324C434.047 376.324 473.055 337.315 473.055 284.123C473.055 230.931 434.047 191.923 384.401 191.923ZM376.599 336.252C350.358 336.252 326.953 315.684 326.953 284.123C326.953 252.562 350.358 231.994 376.599 231.994C402.841 231.994 426.245 252.562 426.245 284.123C426.245 315.684 402.841 336.252 376.599 336.252Z" fill="white"/>
<path d="M581.574 191.923C531.219 191.923 491.502 231.286 491.502 284.123C491.502 336.961 526.255 376.324 582.993 376.324C629.447 376.324 659.235 348.309 668.456 316.748H623.42C617.745 329.869 601.788 339.088 582.638 339.088C558.879 339.088 540.794 322.422 536.538 298.663H670.583V280.577C670.583 232.349 636.895 191.923 581.574 191.923ZM536.892 266.038C541.858 243.697 560.297 229.158 582.638 229.158C606.398 229.158 624.483 244.761 626.611 266.038H536.892Z" fill="white"/>
<path d="M793.276 191.923C772.708 191.923 751.076 201.143 741.147 216.392V195.469H695.047V372.778H741.147V277.386C741.147 249.725 756.041 231.64 780.154 231.64C802.495 231.64 814.55 248.662 814.55 272.421V372.778H860.651V264.974C860.651 221.001 833.699 191.923 793.276 191.923Z" fill="white"/>
<path d="M978.727 124.552L878.369 372.784H927.662L948.935 318.528H1063.13L1084.4 372.784H1134.4L1034.76 124.552H978.727ZM964.893 277.392L1006.03 173.49L1046.81 277.392H964.893Z" fill="white"/>
<path d="M1200 124.552H1153.19V372.784H1200V124.552Z" fill="white"/>
</svg>
